Coordinates
version=1
nRows=7
nColumns=33
inDegrees=yes

Units are S.I. units (second, meters, Newtons, ...)
Angles are in degrees.

endheader
time	ground_thorax_rot_x	ground_thorax_rot_y	ground_thorax_rot_z	ground_thorax_tx	ground_thorax_ty	ground_thorax_tz	clav_prot_r	clav_elev_r	scapula_abduction_r	scapula_elevation_r	scapula_upward_rot_r	scapula_winging_r	shoulder_elv_r	plane_of_elev_r	axial_rot_r	elbow_flexion_r	pro_sup_r	wrist_flex_r	wrist_dev_r	clav_prot_l	clav_elev_l	scapula_abduction_l	scapula_elevation_l	scapula_upward_rot_l	scapula_winging_l	shoulder_elv_l	plane_of_elev_l	axial_rot_l	elbow_flexion_l	pro_sup_l	wrist_flex_l	wrist_dev_l
      5.31000000	    -90.00000000	     90.00000000	    -90.00000000	   -240.38752315	    833.14343636	      8.65560970	     26.93977977	     39.70693599	     45.00000000	     45.00000000	      9.66909600	  -3977.69633742	    642.09994705	    158.23468902	      3.35415089	   1813.07032104	     24.22936111	     18.71214082	      4.04064885	    -45.00000000	      1.59976057	     33.76397646	    -12.70722477	    -45.00000000	   1906.77608460	  -4018.50067176	    148.48536069	     20.73912324	   -709.23026163	     13.07822579	      3.64758369	    -19.83977003
      5.32000000	    -90.00000000	     90.00000000	    -90.00000000	   -241.43219045	    833.18012620	      8.71959437	     26.89637305	     39.64507110	     45.00000000	     45.00000000	      9.91441399	  -3977.68886592	    641.96486992	    158.14630215	      3.52446406	   1813.13656816	     24.66667652	     18.62251526	      3.80195987	    -45.00000000	      1.67691038	     33.66716180	    -12.71149900	    -45.00000000	   1906.76423902	  -4018.40773412	    148.44796132	     20.49451026	   -709.19447163	     13.87511856	      3.41266175	    -19.79262099
      5.33000000	    -90.00000000	     90.00000000	    -90.00000000	   -242.46104143	    833.20574879	      8.77786503	     26.80853670	     39.67380516	     45.00000000	     45.00000000	      9.82199805	  -3977.54594264	    642.20182774	    158.14649117	      3.93120425	   1813.14028609	     25.17541034	     18.58936207	      3.83819861	    -45.00000000	      1.73266138	     33.63497226	    -12.77907275	    -45.00000000	   1906.70969039	  -4018.34668762	    148.38764901	     20.20544294	   -709.16433368	     14.72373130	      3.28610968	    -19.74380049
      5.34000000	    -90.00000000	     90.00000000	    -90.00000000	   -243.46688445	    833.22185557	      8.83210860	     26.77782554	     39.60080260	     45.00000000	     45.00000000	     10.15277052	  -3977.43225591	    641.98335647	    158.10015896	      4.03520973	   1813.52036723	     25.53792065	     18.54638356	      3.54592482	    -45.00000000	      1.87181778	     33.39061654	    -12.61194942	    -45.00000000	   1906.71132509	  -4018.25245469	    148.48029803	     19.94795200	   -708.98157567	     15.47907574	      3.08439952	    -19.72856697
      5.35000000	    -90.00000000	     90.00000000	    -90.00000000	   -244.46156469	    833.22968355	      8.88501692	     26.66470966	     39.69029951	     45.00000000	     45.00000000	      9.72430858	  -3977.43694872	    642.48886423	    158.08418442	      4.64877383	   1813.23878494	     26.08481635	     18.51199491	      3.75815036	    -45.00000000	      1.88129254	     33.47378517	    -12.83475159	    -45.00000000	   1906.56689870	  -4018.12287596	    148.27969078	     19.67895491	   -708.92561260	     16.32728983	      2.93144661	    -19.67035558
      5.36000000	    -90.00000000	     90.00000000	    -90.00000000	   -245.43990824	    833.22892110	      8.93777348	     26.63619081	     39.57144079	     45.00000000	     45.00000000	     10.08987819	  -3977.50172595	    642.21042251	    158.00550175	      4.61116521	   1813.18646816	     26.55348370	     18.35282362	      3.46771393	    -45.00000000	      1.96769971	     33.37105938	    -12.91087221	    -45.00000000	   1906.55529351	  -4018.07076576	    148.22157106	     19.48961127	   -708.96472158	     17.28790385	      2.73764055	    -19.59910715
      5.37000000	    -90.00000000	     90.00000000	    -90.00000000	   -246.40030410	    833.21912742	      8.99126017	     26.56326407	     39.60193397	     45.00000000	     45.00000000	     10.00159269	  -3977.31969847	    642.43925519	    158.05991401	      5.00053199	   1813.24311359	     27.08131310	     18.32215606	      3.49280090	    -45.00000000	      2.03178912	     33.29026064	    -12.94540530	    -45.00000000	   1906.54189781	  -4018.07229049	    148.20588043	     19.24584943	   -709.00557752	     18.21820483	      2.59992549	    -19.52618405
